<?xml version="1.0" standalone="no"?><!DOCTYPE svg PUBLIC "-//W3C//DTD SVG 1.1//EN" "http://www.w3.org/Graphics/SVG/1.1/DTD/svg11.dtd"><svg t="1508596141864" class="icon" style="" viewBox="0 0 1024 1024" version="1.1" xmlns="http://www.w3.org/2000/svg" p-id="1878" xmlns:xlink="http://www.w3.org/1999/xlink" width="64" height="64"><defs><style type="text/css"></style></defs><path d="M426.666667 1024C194.56 1024 6.826667 836.266667 6.826667 604.16S194.56 184.32 426.666667 184.32c232.106667 0 419.84 187.733333 419.84 419.84S658.773333 1024 426.666667 1024z m0-703.146667c-157.013333 0-283.306667 126.293333-283.306667 283.306667 0 157.013333 126.293333 283.306667 283.306667 283.306667 157.013333 0 283.306667-126.293333 283.306666-283.306667s-126.293333-283.306667-283.306666-283.306667z" fill="#1296db" p-id="1879"></path><path d="M880.64 51.2l95.573333 95.573333-256 256L624.64 307.2l256-256z" fill="#1296db" p-id="1880"></path><path d="M1017.173333 392.533333h-136.533333V136.533333h-259.413333V0h392.533333v392.533333z" fill="#1296db" p-id="1881"></path></svg>