<?xml version="1.0" standalone="no"?><!DOCTYPE svg PUBLIC "-//W3C//DTD SVG 1.1//EN" "http://www.w3.org/Graphics/SVG/1.1/DTD/svg11.dtd"><svg t="1507600127540" class="icon" style="" viewBox="0 0 1024 1024" version="1.1" xmlns="http://www.w3.org/2000/svg" p-id="1976" xmlns:xlink="http://www.w3.org/1999/xlink" width="64" height="64"><defs><style type="text/css"></style></defs><path d="M989.184 678.912q0 20.48-15.872 34.304t-46.592 13.824l-816.128 0q-29.696 0-45.056-13.824t-15.36-34.304 16.384-34.304 46.08-13.824l814.08 0q30.72 0 46.592 13.824t15.872 34.304zM520.192 196.608q21.504 0 46.08 1.024t52.224 8.704 57.856 23.552 62.976 45.568q37.888 34.816 54.272 85.504t21.504 97.792q5.12 56.32-1.024 114.688l-587.776 0q-6.144-49.152-2.048-99.328 3.072-43.008 16.384-92.16t46.08-91.136q39.936-50.176 102.912-72.704t130.56-21.504z" fill="#49d407" p-id="1977"></path></svg>