<?xml version="1.0" standalone="no"?><!DOCTYPE svg PUBLIC "-//W3C//DTD SVG 1.1//EN" "http://www.w3.org/Graphics/SVG/1.1/DTD/svg11.dtd"><svg t="1525335888161" class="icon" style="" viewBox="0 0 1024 1024" version="1.1" xmlns="http://www.w3.org/2000/svg" p-id="2383" xmlns:xlink="http://www.w3.org/1999/xlink" width="64" height="64"><defs><style type="text/css"></style></defs><path d="M571.530431 277.891766c-94.333282 0-171.026713 76.624794-171.026713 171.030325 0 94.264644 76.624794 171.030325 171.026713 171.030326 94.264644 0 171.030325-76.765681 171.030325-171.030326 0-94.333282-76.765681-171.030325-171.030325-171.030325z" p-id="2384" fill="#f14a45"></path><path d="M773.888379 33.343399h-523.812883c-119.66415 0-216.714034 97.013759-216.714034 216.750159v523.812884c0 119.66415 97.049884 216.750159 216.714034 216.750159h523.812883c119.7364 0 216.750159-97.086009 216.750159-216.750159v-523.812884c0-119.7364-97.017371-216.750159-216.750159-216.750159z m-202.357948 659.567121c-60.112044 0-115.148522-21.942341-157.761603-58.139618l-35.138813 35.138814 57.644705 57.716954-51.575701 51.507063L327.054315 721.416778l-66.816849 66.889099-51.647951-51.5757 66.816849-66.816849-61.033232-61.10187 51.64795-51.507062 60.960982 61.033232 38.805504-38.736866c-24.131518-37.887928-38.310591-82.693798-38.310591-130.671446 0-134.623524 109.433543-243.984816 243.984817-243.984816s244.057066 109.361293 244.057066 243.984816c-0.003613 134.475411-109.437155 243.981204-243.988429 243.981204z" p-id="2385" fill="#f14a45"></path></svg>