<?xml version="1.0" standalone="no"?><!DOCTYPE svg PUBLIC "-//W3C//DTD SVG 1.1//EN" "http://www.w3.org/Graphics/SVG/1.1/DTD/svg11.dtd"><svg t="1507169348097" class="icon" style="" viewBox="0 0 1024 1024" version="1.1" xmlns="http://www.w3.org/2000/svg" p-id="1029" xmlns:xlink="http://www.w3.org/1999/xlink" width="64" height="64"><defs><style type="text/css"></style></defs><path d="M807.076352 145.394026l-126.069503 49.691629A920.215352 920.215352 0 0 0 533.772393 17.484092a42.329906 42.329906 0 0 0-49.691629 0A920.215352 920.215352 0 0 0 335.005877 195.085655l-122.388642-49.691629a67.175721 67.175721 0 0 0-92.021535 44.170337 520.841889 520.841889 0 0 0 35.888398 413.176693 396.612817 396.612817 0 0 0 352.44248 190.484577 396.612817 396.612817 0 0 0 347.841403-191.404793 520.841889 520.841889 0 0 0 35.888399-413.176693 67.175721 67.175721 0 0 0-85.580028-43.250121z" fill="#ED695F" p-id="1030"></path><path d="M522.729808 802.427787h-14.723445A408.575616 408.575616 0 0 1 148.20216 607.342132a530.964258 530.964258 0 0 1-36.808614-420.538416 75.457659 75.457659 0 0 1 101.223689-49.691629L331.325015 184.04307A863.162 863.162 0 0 1 478.559471 10.122369a51.53206 51.53206 0 0 1 59.813998 0A863.162 863.162 0 0 1 684.68771 184.04307l118.707781-46.930983v8.281939-8.281939a75.457659 75.457659 0 0 1 100.303473 49.691629 530.964258 530.964258 0 0 1-36.808614 420.538416 410.416047 410.416047 0 0 1-344.160542 195.085655zM185.010774 149.995102a57.973567 57.973567 0 0 0-25.76603 6.441508 57.053352 57.053352 0 0 0-30.367106 35.888399 513.480166 513.480166 0 0 0 34.968183 404.894754 391.091525 391.091525 0 0 0 344.160542 184.043071 391.091525 391.091525 0 0 0 348.761618-184.043071 513.480166 513.480166 0 0 0 34.968183-405.81497 57.053352 57.053352 0 0 0-34.968183-35.888399 57.973567 57.973567 0 0 0-46.930983 0l-132.511011 52.452276v-6.441508A920.215352 920.215352 0 0 0 528.2511 26.686245a33.127753 33.127753 0 0 0-39.56926 0 920.215352 920.215352 0 0 0-146.314241 173.000486v6.441508L206.175727 153.675964a58.893783 58.893783 0 0 0-21.164953-3.680862z" fill="#DB5252" p-id="1031"></path><path d="M77.345578 788.624557c0-8.281938 0-17.484092 11.9628-17.484092 74.537444 0 333.117957 42.329906 262.261375 174.840917C304.63877 1038.923132 98.510531 1080.332823 77.345578 788.624557z" fill="#A3CE6D" p-id="1032"></path><path d="M232.861972 1023.279471a132.511011 132.511011 0 0 1-27.60646 0c-46.010768-9.202154-124.229073-52.452275-137.112088-230.974053a27.606461 27.606461 0 0 1 6.441508-20.244738 19.324522 19.324522 0 0 1 13.80323-9.202153c57.053352 0 227.293192 24.845815 276.064606 100.303473a84.659812 84.659812 0 0 1 0 87.420459 148.154672 148.154672 0 0 1-131.590796 72.697012zM88.388162 780.342618a7.361723 7.361723 0 0 0 0 7.361723c11.9628 166.558979 81.899166 206.128239 123.308857 214.410177a127.909934 127.909934 0 0 0 134.351442-60.734213 67.175721 67.175721 0 0 0 0-69.936367c-41.409691-67.175721-205.208023-90.181104-257.660299-91.10132z" fill="#6DBA3A" p-id="1033"></path><path d="M939.587363 788.624557c0-8.281938 0-17.484092-11.9628-17.484092-74.537444 0-333.117957 42.329906-262.261375 174.840917 48.771414 92.941751 253.059222 134.351441 274.224175-157.356825z" fill="#A3CE6D" p-id="1034"></path><path d="M784.070968 1023.279471a148.154672 148.154672 0 0 1-126.069503-76.377874 84.659812 84.659812 0 0 1 0-87.420458c45.090552-75.457659 215.330392-100.303473 276.064606-100.303474a17.484092 17.484092 0 0 1 14.723445 6.441508 27.606461 27.606461 0 0 1 6.441508 20.244738c-12.883015 178.521778-92.021535 221.7719-137.112088 230.974053a132.511011 132.511011 0 0 1-34.047968 6.441507z m145.394026-242.016637c-53.37249 0-217.170823 23.005384-257.660299 92.021535a67.175721 67.175721 0 0 0 0 69.936367 127.909934 127.909934 0 0 0 134.351442 60.734213c40.489475-8.281938 110.425842-47.851198 123.308857-214.410177a10.122369 10.122369 0 0 0 0-7.361723z" fill="#6DBA3A" p-id="1035"></path></svg>