<?xml version="1.0" standalone="no"?><!DOCTYPE svg PUBLIC "-//W3C//DTD SVG 1.1//EN" "http://www.w3.org/Graphics/SVG/1.1/DTD/svg11.dtd"><svg t="1507172659900" class="icon" style="" viewBox="0 0 1024 1024" version="1.1" xmlns="http://www.w3.org/2000/svg" p-id="10537" xmlns:xlink="http://www.w3.org/1999/xlink" width="64" height="64"><defs><style type="text/css"></style></defs><path d="M887 230.2c0-25-9.8-48.6-27.4-66.2-35.4-35.4-97.2-35.4-132.6 0l-122.2 122.2c-44.6-23.6-95.2-37.2-149-37.2-175.8 0-318.8 143-318.8 318.8S280 886.6 455.8 886.6s318.8-143 318.8-318.8c0-53.8-13.6-104.4-37.2-149l122.2-122.2c17.6-17.8 27.4-41.2 27.4-66.4zM455.8 811.6c-134.4 0-243.8-109.4-243.8-243.8S321.4 324 455.8 324s243.8 109.4 243.8 243.8-109.4 243.8-243.8 243.8z" fill="#707070" p-id="10538"></path><path d="M455.8 380.2c-103.4 0-187.6 84.2-187.6 187.6 0 103.4 84.2 187.6 187.6 187.6 103.4 0 187.6-84.2 187.6-187.6-0.2-103.4-84.2-187.6-187.6-187.6z" fill="#707070" p-id="10539"></path></svg>