<?xml version="1.0" standalone="no"?><!DOCTYPE svg PUBLIC "-//W3C//DTD SVG 1.1//EN" "http://www.w3.org/Graphics/SVG/1.1/DTD/svg11.dtd"><svg t="1508596294860" class="icon" style="" viewBox="0 0 1024 1024" version="1.1" xmlns="http://www.w3.org/2000/svg" p-id="4448" xmlns:xlink="http://www.w3.org/1999/xlink" width="64" height="64"><defs><style type="text/css"></style></defs><path d="M601.024 736.576a293.632 293.632 0 0 1-293.376-293.312 293.76 293.76 0 0 1 293.376-293.376 293.632 293.632 0 0 1 293.312 293.376 293.696 293.696 0 0 1-293.312 293.312zM182.656 443.136c0 82.56 23.936 159.552 65.344 224.448l-66.304 66.176-60.288-60.352a62.784 62.784 0 0 0-88.704 0l0.256-0.256a62.72 62.72 0 0 0 0 88.832l60.288 60.288-70.272 70.336a62.592 62.592 0 0 0 0 88.64l-0.256-0.256a62.72 62.72 0 0 0 88.64 0l70.336-70.208 54.592 54.528a62.528 62.528 0 0 0 88.64 0l-0.128 0.32a62.912 62.912 0 0 0 0-88.768l-54.528-54.592 60.16-60.16a416.96 416.96 0 0 0 270.592 99.648 418.816 418.816 0 0 0 418.432-418.56A418.88 418.88 0 0 0 601.024 24.832a418.752 418.752 0 0 0-418.368 418.304z" fill="#d6204b" p-id="4449"></path></svg>