<?xml version="1.0" standalone="no"?><!DOCTYPE svg PUBLIC "-//W3C//DTD SVG 1.1//EN" "http://www.w3.org/Graphics/SVG/1.1/DTD/svg11.dtd"><svg t="1525335520312" class="icon" style="" viewBox="0 0 1024 1024" version="1.1" xmlns="http://www.w3.org/2000/svg" p-id="1784" xmlns:xlink="http://www.w3.org/1999/xlink" width="64" height="64"><defs><style type="text/css"></style></defs><path d="M560.931348 402.638707c-89.22159 0-161.858181 72.604078-161.858181 161.789544 0 89.254103 72.636591 161.858181 161.858181 161.858181 89.254103 0 161.822056-72.604078 161.822056-161.858181 0-89.257715-72.567953-161.789543-161.822056-161.789544z" p-id="1785" fill="#1296db"></path><path d="M773.906442 33.343399h-523.812884c-119.700275 0-216.750159 97.013759-216.750159 216.750159v523.812884c0 119.66415 97.049884 216.750159 216.750159 216.750159h523.812884c119.700275 0 216.750159-97.086009 216.750159-216.750159v-523.812884c0-119.7364-97.049884-216.750159-216.750159-216.750159z m-212.902844 769.491964c-131.520384 0-238.5191-106.893953-238.519099-238.410725 0-52.565526 17.181063-100.969449 46.037733-140.338502L301.246596 356.774374v86.927651H224.657927V221.023749h223.523601v76.624794H350.564482l72.495703 72.531828c39.018641-27.798208 86.537501-44.310957 137.939801-44.310957 131.412009 0 238.410725 107.034841 238.410725 238.555224 0.003613 131.516771-106.995103 238.410725-238.407113 238.410725z" p-id="1786" fill="#1296db"></path></svg>